<svg xmlns="http://www.w3.org/2000/svg" viewBox="0 0 159.57 336.71"><title>Asset 2</title><g id="Layer_2" data-name="Layer 2"><g id="Layer_1-2" data-name="Layer 1"><path d="M159.08,155.13q0,73.25,0,146.49c0,8.33,0,8.38-8.11,8.23-47.48-.92-95,1.14-142.45.19C-.67,309.85,0,307.59,0,298.28c.36-65.49.49-131,.83-196.47C1,73,1.48,44.17,1.87,15.34,2,9.59,3.48,1.11,8.78.78,49-1.7,89.27,2.74,129.52.38c7.81-.46,15.67,0,23.49-.32,5-.21,6.58,1.51,6.56,6.59C159.4,56.14,159.21,155.13,159.08,155.13Zm-83,91.8c-.3,15.17,2.26,28.75,12.46,40.35,7.06,8,25.18,12.43,34.85,2.11A67.62,67.62,0,0,0,140,258.12c2.63-11,.58-21.9-2.83-32.38-3.45-10.64-23.14-24.12-34.28-23.42-3.85.24-8.79,1.77-11.09,4.52C82.05,218.45,74.16,231.15,76.07,246.93ZM141.26,60.14c.27-24-12.53-37.4-30.1-47-10-5.45-20.08-2.28-25.61,7.48a96.23,96.23,0,0,0-9,22C72,59.35,75.85,74.19,89,86.09c8.85,8,25.76,9.73,36.18,4.09C138.09,83.18,140.54,71.12,141.26,60.14Zm1.12,91.11c-.5-2.52-1.57-6.87-2.2-11.27-2.55-17.73-11.07-26.23-29.43-29.79-10.22-2-17.49,1.09-23,10.72-8.56,15-10.27,31.06-8.28,47.36,2,16.63,21,30.83,38.76,23.09C134.38,184.29,140.61,173.2,142.38,151.25ZM42.76,24.66c-11.15.09-17.86,6-22.43,14.89-3,5.75-2,11.11,2.32,16.12C28.23,62.21,36,62.21,43.3,62.31c5,.06,10.76-.84,14.73-3.48,10.78-7.19,9.31-24-2.25-29.89C51.76,26.89,47.12,26.05,42.76,24.66ZM61.42,174q.6-17.62-21.52-18.36c-8.39-.28-18.32,9.61-18.74,18.65-.51,11.07,9.59,20.72,21.91,21.22C56,196.07,60.52,185,61.42,174Zm3-87.66c-.24-8.55-2.61-12.68-10.85-14.44-5.62-1.2-11.7-.38-17.57-.27-5.61.1-8.93,2.63-10.8,7.86-5.09,14.27,1.2,25,16.06,27.3a35.2,35.2,0,0,0,6.91.69c7.44-.31,13.23-5,14.8-11.83C63.65,92.64,63.93,89.49,64.4,86.38ZM61.08,225.94c.17-9.65-9.35-20.82-17.74-20.83-14.18,0-21.82,7.52-22,21.68-.09,8.49,10.11,17.38,20.4,17.2C51.2,243.82,61.93,238.08,61.08,225.94ZM41,288.72c14.63.83,20.32-6.39,19.7-19.26-.49-10-6.61-20.36-18.06-19.9-10.26.42-20.91,11.91-20.37,22.67C22.75,281.19,29.2,290.52,41,288.72Zm.26-173.78c-13.37-.13-21.57,6.82-21,18.83.17,3.74,2,8.91,4.81,10.73a29.46,29.46,0,0,0,24.78,4c7.22-2.09,13.23-10.73,12-16.92C59.46,119.85,53.56,115.06,41.28,114.94Z"/><path d="M141.64,325.92c0,.18,0,.29,0,.4l-.12,1.92c-.07,1.12-.14,2.25-.22,3.37-.07.92-.15,1.83-.27,2.74a.54.54,0,0,1-.54.49,18.54,18.54,0,0,1-2,.29,3,3,0,0,1-1.75-.29c0-.52.1-1,.12-1.48,0-.93.49-13.33.51-14.27a20.66,20.66,0,0,0-.13-2.22c-.05-.58,0-.79.57-1a6.24,6.24,0,0,1,2.59-.65,4,4,0,0,1,1.42.26c.22.08.37.43.49.69.21.49.37,1,.56,1.5.09.24.21.47.3.71.31.82.6,1.65.91,2.47a24.3,24.3,0,0,0,1.56,3.41c0-.48.1-1,.14-1.43.08-.93.12-1.87.24-2.79s.29-2.05.48-3.06c.09-.48.26-.95.39-1.42a3.45,3.45,0,0,0,.11-.4.61.61,0,0,1,.76-.57,20.23,20.23,0,0,0,2-.52l1.86-.62c.56-.18,1.08.38,1,1.07-.17,1-.86,19-.77,19.15a.39.39,0,0,1-.08.55,5.32,5.32,0,0,1-1.25.29l-2.11.1c-.64,0-1.29.06-1.94.06s-1.08-.07-1.62-.1c-.36,0-.51-.3-.63-.55a17.88,17.88,0,0,1-1.1-3.21c-.29-1.2-.67-2.39-1-3.59-.09-.35-.14-.72-.22-1.07C141.78,326.06,141.72,326,141.64,325.92Z"/><path d="M24.57,335.68a1,1,0,0,1-.7-.15.81.81,0,0,1-.29-.56,11.88,11.88,0,0,0-.36-2.58c-.2-.7-.25-1.43-.41-2.14-.21-1-.46-1.92-.69-2.88-.06-.27-.23-.29-.46-.28s-.26.19-.27.37c-.09,1.43-.19,2.85-.28,4.28-.05.8-.3,3.56-.23,3.74s0,.56-.25.63a3.65,3.65,0,0,1-.74.08l-1.92,0a7,7,0,0,0-1.41.06.72.72,0,0,1-1.08-.54c-.05-.41.09-2.64.16-3.31s0-3.86.12-4.72c.08-1.12.33-4.47.35-5,0-.73.08-1.47.12-2.2s.11-1.4.15-2.1,0-1.12,0-1.69c0-.27,5.69-.94,6.53-1,.43,0,.56.22.65.55s.2.55.26.83.81,3.74,1.11,5c.16.66.28,1.32.45,2s.4,1.48.6,2.23c.14.52.25,1,.38,1.56s.27,1,.37,1.44.6,2.55.73,3.2a18.27,18.27,0,0,1,.27,2.21c0,.13-.2.36-.35.41-.63.17-1.28.3-1.93.44A3.91,3.91,0,0,0,24.57,335.68Z"/><path d="M131.46,329.83c.58,0,1.12-.07,1.65-.08a.41.41,0,0,1,.31.16c.18.44,1.44,4.26,1.51,4.34a.36.36,0,0,1-.22.63l-1.94.27c-.14,0-1.17,0-1.57,0s-1,0-1.49.05c-.33,0-.66,0-1,0-1.09,0-2.18-.06-3.26,0a2.21,2.21,0,0,1-1.09-.09.54.54,0,0,1-.26-.41c0-.55-.63-4.76-.17-4.87a5,5,0,0,1,1-.08c.59,0,1.18,0,1.77,0,.26,0,.32-.11.29-.33-.09-.76-.64-7.54-.65-8s-.07-.48-.49-.45a21,21,0,0,1-3.27,0c-1.07-.11-1.07-.49-1-1.3,0-.49.17-3.45.15-4,0-.28,0-.55.33-.62a7.68,7.68,0,0,1,1.79-.5c1-.05,7.86-.25,8.43-.25.2,0,1.19,0,1.23.38.11.95.24,1.91.33,2.86a25.9,25.9,0,0,1,.07,2.7.67.67,0,0,1-.34.46,3.43,3.43,0,0,1-1.85.22,1.69,1.69,0,0,0-.5,0,.3.3,0,0,0-.18.2,4.28,4.28,0,0,0,0,.8C131.05,322.6,131.49,329.3,131.46,329.83Z"/><path d="M34.81,319.14c.18-.82.33-1.64.54-2.46a9,9,0,0,1,.53-1.39c.11-.24.36-.25.64-.17a36.16,36.16,0,0,0,4.77.05,1.93,1.93,0,0,1,1.53.45.48.48,0,0,1,0,.44,53.63,53.63,0,0,0-1.92,5.76c-.1.53-.32,1-.47,1.55-.19.69-.35,1.38-.54,2.07s-.33,1.1-.5,1.65-.27.81-.37,1.22q-.36,1.43-.69,2.88c-.18.77-.34,1.55-.52,2.33s-.4,1.8-.65,2.68a.72.72,0,0,1-.5.46,10.73,10.73,0,0,1-2.77-.11c-.68-.09-1.35-.16-2-.21a.91.91,0,0,1-.84-1.13c.16-.61.26-1.24.42-1.86s1.38-6.43,1.59-7-1-3.28-1.18-3.57c-.36-.69-.74-1.37-1.13-2.06-.25-.43-2-3.42-2.23-3.62a4.32,4.32,0,0,1-.45-.51c-.06-.1-.07-.36,0-.4s3.51-.14,4-.24a4.2,4.2,0,0,1,.86-.1.53.53,0,0,1,.34.29c.24.56.43,1.15.67,1.71s.47.9.7,1.35Z"/><path d="M12.53,328.54a2.7,2.7,0,0,1,.14.64,4.11,4.11,0,0,1,0,2.06c-.11.34-.29.65-.4,1a2.3,2.3,0,0,1-.78,1.09c-.23.2-1.9,1.33-2,1.4a11.91,11.91,0,0,1-2.83.94,30,30,0,0,1-5.57.78,1.31,1.31,0,0,1-.37-.6c-.13-.57-.19-1.15-.27-1.73s-.17-1.05-.23-1.59a.75.75,0,0,1,.72-.77,14,14,0,0,0,2.46-.59,6.74,6.74,0,0,0,1.34-.85c.17-.13.48-1.11.15-1.34-.61-.4-1.19-.85-1.83-1.19a5.6,5.6,0,0,1-2.4-2.86A8.15,8.15,0,0,1,0,322.66a2.89,2.89,0,0,1,.36-1.43,5.75,5.75,0,0,1,.83-1.47,8.87,8.87,0,0,1,1.64-1.6,9.93,9.93,0,0,1,2-1c.53-.21,1.07-.38,1.61-.54.28-.08,2.62-.51,3.18-.6a10.52,10.52,0,0,0,1.08-.25c.23-.05.33,0,.43.25s.21,2.74.29,3.43c.06.43.15.86.21,1.29,0,.21-.49.8-.7.8a7.27,7.27,0,0,0-.81,0c-.26,0-.57,0-.76,0a3.75,3.75,0,0,0-2,.89,2.6,2.6,0,0,0-.51,1.53,1.28,1.28,0,0,0,.65,1.33,9.57,9.57,0,0,0,1.34.6l1.34.44A15.07,15.07,0,0,1,12.53,328.54Z"/><path d="M115.56,326.34c-.25-.07-.47-.12-.68-.19s-.53,0-.55.38c0,1.07-.13,2.15-.16,3.23s0,1.93,0,2.89c0,.68,0,1.36,0,2a.54.54,0,0,1-.27.43,3.21,3.21,0,0,1-1,.14,10.72,10.72,0,0,0-1.38,0c-.4.15-1.51-.29-1.62-.7a4.06,4.06,0,0,1-.09-1.1c0-1,.07-2,.09-2.93,0-.72,0-1.44,0-2.15,0-1.05.05-2.09.07-3.14,0-1.43.07-2.86.1-4.29s0-2.71.06-4.06c0-.42.1-.84.14-1.25a.45.45,0,0,1,.52-.45l2.14,0c1.25,0,2.51-.09,3.76-.11.72,0,1,.21,1.06.93,0,.24.1.47.15.71s.14.72.22,1.09.1.44.16.66c.13.54.29,1.08.41,1.63s.08.86.16,1.28c.11.65.27,1.3.39,1.95s.26,1.51.39,2.27c.08.44.17.88.24,1.32.08.61.12,1.22.21,1.83.07.44.21.88.28,1.32.2,1.27.39,2.54.56,3.81a.65.65,0,0,1-.64.74c-.67.08-1.36.13-2,.16a7.81,7.81,0,0,1-1.08-.05.73.73,0,0,1-.62-.67c-.16-1.2-.34-2.4-.51-3.6-.11-.71-.23-1.42-.32-2.13S115.63,327,115.56,326.34Z"/><path d="M90.65,327c.15.52.27,1,.38,1.57.08.37.44,2.6.66,3.32a15.82,15.82,0,0,1,.52,2.44,8.25,8.25,0,0,1,.05,1.11c0,.27-.41.55-.68.56-.6,0-2.82.3-3.35.37s-.65-.17-.55-.66c.06-.25-.63-5.29-.7-5.78-.1-.74-.24-1.48-.36-2.19a7.09,7.09,0,0,0-.85-.08.31.31,0,0,0-.25.17c-.12.47-.22.95-.32,1.43,0,.07-.67,2.46-.78,3s-.2,1.2-.32,1.8c0,.22-.14.43-.2.65s-.68,1.83-1.1,1.79c-.62-.07-1.25,0-1.86-.11a6.94,6.94,0,0,1-1.39-.42c-.09,0-.16-.29-.14-.42.07-.5.18-1,.27-1.48,0-.25.1-.5.14-.75.09-.49.17-1,.27-1.46s.19-.67.25-1c.11-.57.18-1.15.28-1.72.15-1,.33-1.9.47-2.86s.61-4.08.75-4.78c.23-1.12.77-4.55.86-5.14a.49.49,0,0,1,.48-.46c1,0,2.07-.11,3.1-.16.4,0,.79-.06,1.19-.05a.69.69,0,0,1,.68.58C88.32,316.92,90.48,326.35,90.65,327Z"/><path d="M93.45,327c0-.93,0-1.85,0-2.77a5.21,5.21,0,0,1,.48-2c.37-.83.68-1.69,1.11-2.49a14.94,14.94,0,0,1,1.51-2.33,4.79,4.79,0,0,1,3.13-1.47c.43-.08,1.47-.09,1.55-.15.34-.23.53-.15.65.23a25,25,0,0,1,.49,2.67,9.54,9.54,0,0,1,.07,2.13c0,.32-.14.43-.41.41a2.6,2.6,0,0,0-1.85.58,11.43,11.43,0,0,0-1.48,1.59c-.19.32-.41.61-.58.93a3,3,0,0,0-.34.83,10.38,10.38,0,0,0,.09,3.21,5,5,0,0,0,1.93,2.15,1.7,1.7,0,0,0,2.34-1c.06-.24.1-.49.17-.85-.56,0-1,.05-1.5.11a.87.87,0,0,1-.9-.64,2.13,2.13,0,0,1-.12-.6c0-.54.21-3,1-2.94l4.38.25a7.32,7.32,0,0,1,1,.09.53.53,0,0,1,.34.33,34.86,34.86,0,0,1-.16,4.35,15.9,15.9,0,0,1-1.22,4.17,5.8,5.8,0,0,1-1.13.86,3.23,3.23,0,0,1-1.76.75,4.84,4.84,0,0,1-.76,0,7,7,0,0,1-3.12-.92,17.74,17.74,0,0,1-1.66-.9,8.91,8.91,0,0,1-1.08-1.05,11.12,11.12,0,0,1-1.5-2.44,11.66,11.66,0,0,1-.46-1.16A12.62,12.62,0,0,1,93.45,327Z"/><path d="M53.25,330.4a7.75,7.75,0,0,0,.12-.82c0-.9.21-3.61.24-4.07s0-.79,0-1.19c0-.13,0-2.76,0-3,0-.06,0-1.05-.86-1-.41,0-.81.09-1.22.13a5.48,5.48,0,0,1-.81,0c-.22,0-.34-.12-.45-.37-.42-.94-.08-4.82.36-4.83,1.88-.06,6.71-.25,7.24-.25s1.25.05,1.88.1a1.06,1.06,0,0,1,.73.86c0,.56,0,1.12,0,1.67s0,1.31,0,2a.79.79,0,0,1-.9.91c-.64,0-1.28,0-1.92,0s-.61,0-.63.56c0,1.21,0,2.42,0,3.63,0,.58,0,1.16,0,1.73,0,.94,0,1.88.07,2.82,0,.5,0,1,0,1.5s.09.66.62.58l2-.32a.78.78,0,0,1,.94.73,16,16,0,0,1,.13,3.72c0,.28-.14.51-.51.48a9.87,9.87,0,0,0-1.09,0c-1.24.05-8.11.22-8.58.24s-.61-.05-.6-.59c0-.94.08-1.88.12-2.83,0-.58,0-1.16,0-1.74a.69.69,0,0,1,.42-.46A11.1,11.1,0,0,1,53.25,330.4Z"/><path d="M69.58,328.33c0,1.59,0,3.18,0,4.78,0,.85.13,1.69.2,2.54,0,.32-3.75.77-3.86.67s-.56-.37-.46-.81c.17-.74.5-4.95.56-6.3,0-1.12.12-2.23.17-3.34.08-1.71.16-3.42.23-5.13,0-.54-.11-.77-.42-.76l-1.89.09a8.85,8.85,0,0,1-1,0c-.32,0-.65-.62-.61-1,.05-.54.13-3.22.09-3.62a1,1,0,0,1,.74-.93c.53,0,1.07,0,1.61,0,.94,0,1.89.08,2.83.15.66,0,1.31.14,2,.21s1.19.1,1.79.18a3.18,3.18,0,0,1,1.43.33.91.91,0,0,1,.45.78c.06.62.19,1.24.22,1.87a7.15,7.15,0,0,1-.06,1.6c-.07.41-.5.51-1.16.5s-1.43,0-2.15.06a.39.39,0,0,0-.41.38c-.06.62-.13,1.25-.19,1.88C69.66,322.45,69.61,326.37,69.58,328.33Z"/><path d="M159.57,333.27a.92.92,0,0,1-.45.79,2.63,2.63,0,0,0-.5.5.68.68,0,0,1-.73.31c-.43-.06-.85-.15-1.28-.22a2.07,2.07,0,0,1-1.34-1.24,2.41,2.41,0,0,1-.11-.52c0-.55.23-.76.8-.9.42-.1,2.89-.32,3.36.42A3.31,3.31,0,0,1,159.57,333.27Z"/></g></g></svg>