<svg xmlns="http://www.w3.org/2000/svg" viewBox="0 0 120.95 152.8"><defs><style>.cls-1{fill:none;stroke:#231f20;stroke-miterlimit:10;stroke-width:6px;}.cls-2{fill:#231f20;}</style></defs><title>Asset 3</title><g id="Layer_2" data-name="Layer 2"><g id="Layer_1-2" data-name="Layer 1"><rect class="cls-1" x="3.69" y="3" width="76" height="76"/><path class="cls-1" d="M41.69,3V3Z"/><path class="cls-1" d="M3.69,41h0Z"/><rect class="cls-1" x="22.69" y="22" width="76" height="76"/><path class="cls-1" d="M60.69,98v0Z"/><path class="cls-1" d="M22.69,60h0Z"/><rect class="cls-1" x="41.69" y="41" width="76" height="76"/><path class="cls-1" d="M79.69,117v0Z"/><path class="cls-2" d="M5,151.87v.78H.14v-7.14H4.88v.78H1.08v2.27h3v.73h-3v2.58Z"/><path class="cls-2" d="M11.36,145.51l-2.52,7.14H7.93L5.4,145.51h1l2.09,5.89,2.07-5.89Z"/><path class="cls-2" d="M17.19,151.87v.78H12.34v-7.14h4.75v.78H13.28v2.27h3v.73h-3v2.58Z"/><path class="cls-2" d="M23.9,152.65h-1l-1.39-3.09H19.39v3.09h-.88v-7.14h2.95a2.32,2.32,0,0,1,1.79.62,1.93,1.93,0,0,1,.25,2.46,1.78,1.78,0,0,1-1.07.75Zm-4.51-3.82h2a1.54,1.54,0,0,0,1.15-.39,1.3,1.3,0,0,0,.39-.95,1.05,1.05,0,0,0-.41-.88,1.61,1.61,0,0,0-1-.32H19.39Z"/><path class="cls-2" d="M30.13,145.51l-2.51,4.14v3h-.94v-3l-2.51-4.14h1.11l2,3.28,2-3.28Z"/><path class="cls-2" d="M33.67,152.65h-.94v-6.36H30.58v-.78h5.24v.78H33.67Z"/><path class="cls-2" d="M42.22,152.65h-.94v-3.4H37.8v3.4h-.94v-7.14h.94v3h3.48v-3h.94Z"/><path class="cls-2" d="M45,152.65H44.1v-7.14H45Z"/><path class="cls-2" d="M52.43,152.65h-.91l-3.88-6.23v.47c0,.18,0,.33,0,.45v5.31h-.76v-7.14h1.17l3.63,5.82v-.5c0-.19,0-.37,0-.52v-4.8h.74Z"/><path class="cls-2" d="M59.86,149.05v3.7h-.57l-.26-.9a2.39,2.39,0,0,1-2.06,1,2.76,2.76,0,0,1-2.31-1.07,4.09,4.09,0,0,1-.83-2.58,4.16,4.16,0,0,1,.88-2.71,2.88,2.88,0,0,1,2.37-1.08,2.61,2.61,0,0,1,2.7,2.07l-.89.21a1.88,1.88,0,0,0-.72-1.16,2,2,0,0,0-1.15-.36,1.79,1.79,0,0,0-1.64.85,4.05,4.05,0,0,0-.53,2.15,3.52,3.52,0,0,0,.6,2.17,1.89,1.89,0,0,0,1.6.78,1.85,1.85,0,0,0,1.32-.5,1.8,1.8,0,0,0,.53-1.38c0-.11,0-.24,0-.39H57v-.75Z"/><path class="cls-2" d="M65.34,152.65H64.4v-7.14h.94Z"/><path class="cls-2" d="M72.73,152.65h-.91l-3.88-6.23v.47c0,.18,0,.33,0,.45v5.31h-.76v-7.14h1.18L72,151.33v-.5c0-.19,0-.37,0-.52v-4.8h.74Z"/><path class="cls-2" d="M74.61,152.65v-7.14h3a2.31,2.31,0,0,1,1.66.52,1.64,1.64,0,0,1,.54,1.21,1.6,1.6,0,0,1-1.33,1.61,2,2,0,0,1,1.17.69,1.8,1.8,0,0,1,.39,1.13,1.87,1.87,0,0,1-.6,1.41,2.56,2.56,0,0,1-1.83.57Zm.9-4.08h1.64a1.82,1.82,0,0,0,1.35-.37,1.24,1.24,0,0,0,.34-.87,1,1,0,0,0-.36-.79,1.63,1.63,0,0,0-1.09-.31H75.51Zm0,3.3h2a1.71,1.71,0,0,0,1.13-.34,1.12,1.12,0,0,0,.4-.89,1.47,1.47,0,0,0-.18-.71,1.17,1.17,0,0,0-.51-.5,2.11,2.11,0,0,0-1-.18H75.51Z"/><path class="cls-2" d="M86.26,151.87v.78H81.41v-7.14h4.75v.78H82.35v2.27h3v.73h-3v2.58Z"/><path class="cls-2" d="M89.84,152.65H88.9v-6.36H86.75v-.78H92v.78H89.84Z"/><path class="cls-2" d="M101.38,145.51l-1.8,7.14h-.94L97,147.11l-1.52,5.54h-1l-1.91-7.14h1l1.5,5.78,1.59-5.78h.77l1.71,5.78,1.4-5.78Z"/><path class="cls-2" d="M107.39,151.87v.78h-4.85v-7.14h4.75v.78h-3.81v2.27h3v.73h-3v2.58Z"/><path class="cls-2" d="M113.55,151.87v.78H108.7v-7.14h4.75v.78h-3.81v2.27h3v.73h-3v2.58Z"/><path class="cls-2" d="M120.39,152.65h-.91l-3.88-6.23v.47c0,.18,0,.33,0,.45v5.31h-.76v-7.14H116l3.63,5.82v-.5c0-.19,0-.37,0-.52v-4.8h.74Z"/><path class="cls-2" d="M5.71,132.63H1.9v1.82h3v1.67h-3v1.94H5.71v1.76H0v-8.88H5.71Z"/><path class="cls-2" d="M8.71,130.94v8.88H6.84v-8.88Z"/><path class="cls-2" d="M16.54,135.07v4.75h-.85q-.11-.49-.27-1A2.62,2.62,0,0,1,13.24,140a2.81,2.81,0,0,1-2.44-1.25,5.46,5.46,0,0,1-.87-3.21,5.71,5.71,0,0,1,.93-3.41,3,3,0,0,1,2.52-1.29,2.89,2.89,0,0,1,2.16.84,3.7,3.7,0,0,1,1,2.21l-1.78.27c-.15-1.08-.6-1.62-1.38-1.62a1.24,1.24,0,0,0-1.15.77,4.88,4.88,0,0,0-.39,2.18,4.22,4.22,0,0,0,.42,2.09,1.32,1.32,0,0,0,1.2.72,1.26,1.26,0,0,0,.9-.37,1.48,1.48,0,0,0,.4-1.16H13.25v-1.66Z"/><path class="cls-2" d="M24.19,130.94v8.88H22.35v-3.66H19.86v3.66H18v-8.88h1.84v3.46h2.49v-3.46Z"/><path class="cls-2" d="M30.87,130.94v1.76h-2v7.12H27V132.7H25v-1.76Z"/><path class="cls-2" d="M38,130.94l-2.51,5.14v3.74H33.61v-3.74l-2.52-5.14h2.18l1.52,3.36,1.52-3.36Z"/><path class="cls-2" d="M47.19,132.63H43.38v1.82h3v1.67h-3v1.94h3.81v1.76H41.48v-8.88h5.71Z"/><path class="cls-2" d="M50.18,130.94v8.88H48.32v-8.88Z"/><path class="cls-2" d="M58,135.07v4.75h-.86a8.49,8.49,0,0,0-.26-1A2.62,2.62,0,0,1,54.72,140a2.81,2.81,0,0,1-2.44-1.25,5.46,5.46,0,0,1-.87-3.21,5.71,5.71,0,0,1,.93-3.41,3,3,0,0,1,2.52-1.29,2.89,2.89,0,0,1,2.16.84,3.76,3.76,0,0,1,1,2.21l-1.78.27q-.23-1.62-1.38-1.62a1.24,1.24,0,0,0-1.15.77,4.88,4.88,0,0,0-.39,2.18,4.22,4.22,0,0,0,.42,2.09,1.32,1.32,0,0,0,1.2.72,1.26,1.26,0,0,0,.9-.37,1.48,1.48,0,0,0,.4-1.16H54.73v-1.66Z"/><path class="cls-2" d="M65.67,130.94v8.88H63.83v-3.66h-2.5v3.66H59.49v-8.88h1.84v3.46h2.5v-3.46Z"/><path class="cls-2" d="M72.34,130.94v1.76h-2v7.12h-1.9V132.7h-2v-1.76Z"/><path class="cls-2" d="M79.47,130.94,77,136.08v3.74H75.09v-3.74l-2.52-5.14h2.18l1.52,3.36,1.52-3.36Z"/><path class="cls-2" d="M88.67,132.63H84.86v1.82h3v1.67h-3v1.94h3.81v1.76H83v-8.88h5.71Z"/><path class="cls-2" d="M91.66,130.94v8.88H89.79v-8.88Z"/><path class="cls-2" d="M99.5,135.07v4.75h-.86a7,7,0,0,0-.27-1A2.6,2.6,0,0,1,96.19,140a2.8,2.8,0,0,1-2.43-1.25,5.46,5.46,0,0,1-.87-3.21,5.71,5.71,0,0,1,.93-3.41,2.93,2.93,0,0,1,2.52-1.29,2.85,2.85,0,0,1,2.15.84,3.71,3.71,0,0,1,1,2.21l-1.79.27c-.14-1.08-.6-1.62-1.37-1.62a1.24,1.24,0,0,0-1.15.77,4.88,4.88,0,0,0-.39,2.18,4.22,4.22,0,0,0,.42,2.09,1.32,1.32,0,0,0,1.2.72,1.26,1.26,0,0,0,.9-.37,1.52,1.52,0,0,0,.39-1.16h-1.5v-1.66Z"/><path class="cls-2" d="M107.15,130.94v8.88h-1.84v-3.66h-2.5v3.66H101v-8.88h1.84v3.46h2.5v-3.46Z"/><path class="cls-2" d="M113.82,130.94v1.76h-2v7.12h-1.9V132.7h-2v-1.76Z"/><path class="cls-2" d="M121,130.94l-2.52,5.14v3.74h-1.87v-3.74l-2.51-5.14h2.17l1.53,3.36,1.52-3.36Z"/></g></g></svg>