<svg xmlns="http://www.w3.org/2000/svg" viewBox="0 0 208.69 129.11"><defs><style>.cls-1{stroke:#000;stroke-miterlimit:10;}</style></defs><title>Asset 1</title><g id="Layer_2" data-name="Layer 2"><g id="Layer_1-2" data-name="Layer 1"><path class="cls-1" d="M90.41,28.58a8.43,8.43,0,0,1-2.42.35,8.84,8.84,0,0,1-8.84-8.84A8.69,8.69,0,0,1,81,14.72a8.69,8.69,0,0,1-1.81-5.37A8.84,8.84,0,0,1,88,.5a8.43,8.43,0,0,1,2.42.35A8.85,8.85,0,0,0,85.8,14.72a8.84,8.84,0,0,0,4.61,13.86Z"/><path class="cls-1" d="M98.44,10.19a4.43,4.43,0,0,1-5.74,2.48,4.65,4.65,0,0,0-.19-8.17A4.33,4.33,0,0,1,96,4.42,4.43,4.43,0,0,1,98.44,10.19Z"/><path class="cls-1" d="M98.44,22.19a4.43,4.43,0,0,1-5.74,2.48,4.73,4.73,0,0,0,2-2.31,4.64,4.64,0,0,0-2.19-5.86A4.33,4.33,0,0,1,96,16.42,4.43,4.43,0,0,1,98.44,22.19Z"/><path class="cls-1" d="M112.71,27l1.18.65a8.31,8.31,0,0,1-3.88-.25c-5-1.63-7.49-8.33-7.07-13.66.39-5,3.52-11,8.39-12a7.89,7.89,0,0,1,3.44.13c-.2.06-.49.14-.83.27-4.5,1.77-7.23,7.63-7.3,12.59C106.54,21.9,112,26.41,112.71,27Z"/><path class="cls-1" d="M122.87,15.4c-.4,4.66-3.13,8.22-6.1,8a3.7,3.7,0,0,1-2-.81c2.06-1.09,3.7-4,4-7.5S118,8.38,116.11,7a3.8,3.8,0,0,1,2.12-.46C121.2,6.76,123.27,10.74,122.87,15.4Z"/><path class="cls-1" d="M90.33,90.56a8.84,8.84,0,0,1-11.27-8.5,8.75,8.75,0,0,1,1.81-5.36,8.75,8.75,0,0,1-1.81-5.37,8.84,8.84,0,0,1,11.27-8.51A8.86,8.86,0,0,0,85.72,76.7a8.84,8.84,0,0,0,4.61,13.86Z"/><path class="cls-1" d="M98.35,72.17a4.43,4.43,0,0,1-5.74,2.48,4.75,4.75,0,0,0,2-2.31,4.65,4.65,0,0,0-2.19-5.86,4.33,4.33,0,0,1,3.46-.08A4.43,4.43,0,0,1,98.35,72.17Z"/><path class="cls-1" d="M98.35,84.17a4.45,4.45,0,0,1-5.74,2.48,4.75,4.75,0,0,0,2-2.31,4.66,4.66,0,0,0-2.19-5.87,4.42,4.42,0,0,1,5.92,5.7Z"/><path class="cls-1" d="M112.63,89l1.18.66a8.19,8.19,0,0,1-3.88-.26c-5-1.62-7.49-8.32-7.07-13.66.39-5,3.51-11,8.39-12a7.76,7.76,0,0,1,3.44.13,7.61,7.61,0,0,0-.83.27c-4.5,1.76-7.23,7.63-7.3,12.59C106.46,83.88,111.88,88.39,112.63,89Z"/><path class="cls-1" d="M122.79,77.38c-.4,4.66-3.13,8.22-6.1,8a3.7,3.7,0,0,1-2-.81c2.06-1.09,3.69-4,4-7.5s-.82-6.67-2.66-8.09a3.75,3.75,0,0,1,2.11-.46C121.11,68.74,123.19,72.72,122.79,77.38Z"/><path class="cls-1" d="M88.34,59.57a8.43,8.43,0,0,0,2.42.35,8.84,8.84,0,0,0,8.84-8.85,8.69,8.69,0,0,0-1.81-5.36,8.69,8.69,0,0,0,1.81-5.37,8.84,8.84,0,0,0-8.84-8.85,8.43,8.43,0,0,0-2.42.35,8.82,8.82,0,0,1,6.41,8.5,8.69,8.69,0,0,1-1.81,5.37,8.69,8.69,0,0,1,1.81,5.36A8.82,8.82,0,0,1,88.34,59.57Z"/><path class="cls-1" d="M80.31,41.18a4.43,4.43,0,0,0,5.74,2.48,4.73,4.73,0,0,1-2-2.31,4.64,4.64,0,0,1,2.19-5.86,4.33,4.33,0,0,0-3.46-.08A4.43,4.43,0,0,0,80.31,41.18Z"/><path class="cls-1" d="M80.31,53.18a4.44,4.44,0,0,0,5.74,2.48,4.73,4.73,0,0,1-2-2.31,4.64,4.64,0,0,1,2.19-5.86,4.33,4.33,0,0,0-3.46-.08A4.43,4.43,0,0,0,80.31,53.18Z"/><path class="cls-1" d="M114,58l-1.18.65a8.31,8.31,0,0,0,3.88-.25c5-1.63,7.49-8.33,7.07-13.67-.39-5-3.51-11-8.39-12a7.91,7.91,0,0,0-3.44.13c.2.06.49.14.83.27,4.5,1.76,7.23,7.63,7.3,12.59C120.12,52.89,114.7,57.4,114,58Z"/><path class="cls-1" d="M103.79,46.39c.4,4.66,3.13,8.22,6.1,8a3.7,3.7,0,0,0,2-.81c-2.06-1.09-3.7-4-4-7.5s.81-6.67,2.66-8.09a3.77,3.77,0,0,0-2.11-.46C105.46,37.75,103.39,41.73,103.79,46.39Z"/><path d="M0,127.77V116.3H.25l7.64,8.79V116.3H9v11.47H8.76l-7.57-8.69v8.69Z"/><path d="M17.28,116a6,6,0,0,1,4.36,1.74,6,6,0,0,1-4.27,10.31,5.86,5.86,0,0,1-4.31-1.75,5.74,5.74,0,0,1-1.76-4.23,6.13,6.13,0,0,1,.8-3.06,5.88,5.88,0,0,1,2.19-2.21A5.78,5.78,0,0,1,17.28,116Zm0,1.11a4.68,4.68,0,0,0-2.42.67,4.82,4.82,0,0,0-1.78,1.78,5,5,0,0,0-.64,2.51A4.83,4.83,0,0,0,17.33,127a4.93,4.93,0,0,0,2.47-.65,4.7,4.7,0,0,0,1.77-1.77,5,5,0,0,0,.64-2.5,4.79,4.79,0,0,0-.64-2.47,4.68,4.68,0,0,0-1.79-1.77A4.78,4.78,0,0,0,17.33,117.12Z"/><path d="M25.05,116.3h1.18l2.34,8.27,3.29-8.27h.24l3.25,8.27,2.39-8.27h1.17l-3.3,11.47H35.4L32,119.09l-3.47,8.68H28.3Z"/><path d="M41.94,125.67l1.05.49-1.58,3-.77-.32Z"/><path d="M49.89,127.77V116.3h.25l7.64,8.79V116.3h1.13v11.47h-.26l-7.57-8.69v8.69Z"/><path d="M61.71,116.3h6.58v1.12H62.86V121h5.38v1.12H62.86v4.51h5.38v1.12H61.71Z"/><path d="M69.39,116.3h1.25l3.81,8.86,3.86-8.86h1.25l-5,11.47h-.25Z"/><path d="M81.49,116.3h6.58v1.12H82.64V121H88v1.12H82.64v4.51H88v1.12H81.49Z"/><path d="M90.12,116.3H92.4a14.43,14.43,0,0,1,2.59.15,2.93,2.93,0,0,1,1.66,1,2.83,2.83,0,0,1,.64,1.89,3,3,0,0,1-.44,1.65,2.71,2.71,0,0,1-1.26,1.07,5.53,5.53,0,0,1-2.26.37l4.13,5.33H96l-4.13-5.33h-.65v5.33H90.12Zm1.14,1.12v3.9l2,0a5.09,5.09,0,0,0,1.7-.22,1.8,1.8,0,0,0,.86-.7,2,2,0,0,0,.31-1.07,1.83,1.83,0,0,0-.32-1,1.7,1.7,0,0,0-.82-.68,5.12,5.12,0,0,0-1.68-.2Z"/><path d="M100.66,125.67l1,.49-1.59,3-.77-.32Z"/><path d="M108.08,127.77l1.64-11.47h.18l4.67,9.41,4.62-9.41h.18L121,127.77H119.9l-1.13-8.2-4.06,8.2h-.29l-4.11-8.27-1.13,8.27Z"/><path d="M128,116.3l5.35,11.47h-1.24l-1.8-3.77h-5l-1.78,3.77h-1.28l5.42-11.47Zm-.15,2.43-2,4.16h3.92Z"/><path d="M134.19,116.3h1.32l2.94,4.73,2.89-4.73h1.33l-3.64,6v5.48H137.9v-5.48Z"/><path d="M144.59,116.3h2.26a5.31,5.31,0,0,1,2.1.32,2.66,2.66,0,0,1,1.16,1,2.78,2.78,0,0,1,.42,1.5,2.68,2.68,0,0,1-.37,1.39,2.72,2.72,0,0,1-1.1,1,4.21,4.21,0,0,1,1.38.71,2.83,2.83,0,0,1,.75,1,3,3,0,0,1,.27,1.26,3.12,3.12,0,0,1-1,2.34,3.81,3.81,0,0,1-2.71,1h-3.15Zm1.12,1.12v3.67h.66a5.15,5.15,0,0,0,1.76-.22,1.93,1.93,0,0,0,.89-.7,1.85,1.85,0,0,0,.33-1.06,1.51,1.51,0,0,0-.56-1.24,2.74,2.74,0,0,0-1.75-.45Zm0,4.83v4.4h1.42a5,5,0,0,0,1.85-.25,2.08,2.08,0,0,0,.94-.77,2,2,0,0,0,.35-1.13,1.92,1.92,0,0,0-.5-1.33,2.55,2.55,0,0,0-1.37-.78,10.31,10.31,0,0,0-2-.14Z"/><path d="M153.74,116.3h6.57v1.12h-5.43V121h5.39v1.12h-5.39v4.51h5.39v1.12h-6.53Z"/><path d="M166.72,116.3h1.15v10.36h4.41v1.11h-5.56Z"/><path d="M178.79,116.3l5.35,11.47H182.9L181.1,124h-4.95l-1.78,3.77h-1.28l5.42-11.47Zm-.15,2.43-2,4.16h3.92Z"/><path d="M184.78,117.42V116.3h6.29v1.12h-2.56v10.35h-1.17V117.42Z"/><path d="M192.73,116.3h6.58v1.12h-5.43V121h5.38v1.12h-5.38v4.51h5.38v1.12h-6.53Z"/><path d="M201.35,116.3h2.29a14.5,14.5,0,0,1,2.59.15,3,3,0,0,1,1.66,1,2.88,2.88,0,0,1,.64,1.89,3.08,3.08,0,0,1-.44,1.65,2.82,2.82,0,0,1-1.26,1.07,5.59,5.59,0,0,1-2.27.37l4.13,5.33h-1.42l-4.12-5.33h-.65v5.33h-1.15Zm1.15,1.12v3.9l2,0a5,5,0,0,0,1.69-.22,1.76,1.76,0,0,0,.86-.7,1.91,1.91,0,0,0,.31-1.07,1.82,1.82,0,0,0-.31-1,1.75,1.75,0,0,0-.82-.68,5.15,5.15,0,0,0-1.69-.2Z"/></g></g></svg>