<?xml version="1.0" encoding="utf-8"?>
<!-- Generator: Adobe Illustrator 23.0.6, SVG Export Plug-In . SVG Version: 6.00 Build 0)  -->
<svg version="1.1" id="Layer_1" xmlns="http://www.w3.org/2000/svg" xmlns:xlink="http://www.w3.org/1999/xlink" x="0px" y="0px"
	 viewBox="0 0 100 125" style="enable-background:new 0 0 100 125;" xml:space="preserve">
<style type="text/css">
	.st0{font-family:'Arial-BoldMT';}
	.st1{font-size:5px;}
</style>
<path d="M61.1,28.8c-4.8-9-9.3-17.5-10.6-23.4C50.4,5.2,50.2,5,50,5c-0.2,0-0.5,0.1-0.6,0.3c-9.2,16-32.7,56.6-25.7,77.3
	c0,0.1,0.1,0.7,0.3,0.8c0.5,1.2,1,2.4,1.7,3.4C29.3,92.2,36,95,45.6,95c2.3,0,4.9-0.2,7.6-0.5c11.4-1.4,18.9-5.4,22.3-11.9
	C82.4,69.1,71.1,47.7,61.1,28.8z"/>
<text transform="matrix(1 0 0 1 0 115)" class="st0 st1">Created by Valeriy</text>
<text transform="matrix(1 0 0 1 0 120)" class="st0 st1">from the Noun Project</text>
</svg>
