<svg id="Layer_1" data-name="Layer 1" xmlns="http://www.w3.org/2000/svg" viewBox="0 0 120.95 152.8"><defs><style>.cls-1{fill:none;stroke:#231f20;stroke-miterlimit:10;stroke-width:6px;}.cls-2{fill:#231f20;}</style></defs><title>jrollo_finallogo</title><path class="cls-1" d="M89.25,75.1h76v76h-76Zm38,0v0Zm-38,38h0Zm19,57h76v-76h-76Zm38,0v0Zm-38-38h0Zm19-19v76h76v-76Zm38,76v0Z" transform="translate(-85.55 -72.1)"/><path class="cls-2" d="M90.54,224v.79H85.69v-7.14h4.75v.78H86.63v2.27h3v.73h-3V224Z" transform="translate(-85.55 -72.1)"/><path class="cls-2" d="M96.92,217.61l-2.53,7.14h-.91L91,217.61h1L94,223.5l2.07-5.89Z" transform="translate(-85.55 -72.1)"/><path class="cls-2" d="M102.75,224v.79H97.9v-7.14h4.74v.78h-3.8v2.27h3v.73h-3V224Z" transform="translate(-85.55 -72.1)"/><path class="cls-2" d="M109.46,224.75h-1l-1.38-3.09h-2.15v3.09h-.88v-7.14h3a2.31,2.31,0,0,1,1.78.62,2,2,0,0,1,.58,1.37,2.09,2.09,0,0,1-.32,1.09,1.83,1.83,0,0,1-1.08.75Zm-4.52-3.82h2a1.56,1.56,0,0,0,1.16-.39,1.34,1.34,0,0,0,.38-1,1.06,1.06,0,0,0-.4-.88,1.67,1.67,0,0,0-1-.31h-2.08Z" transform="translate(-85.55 -72.1)"/><path class="cls-2" d="M115.69,217.61l-2.51,4.14v3h-.94v-3l-2.51-4.14h1.11l2,3.28,2-3.28Z" transform="translate(-85.55 -72.1)"/><path class="cls-2" d="M119.22,224.75h-.94v-6.36h-2.15v-.78h5.25v.78h-2.16Z" transform="translate(-85.55 -72.1)"/><path class="cls-2" d="M127.78,224.75h-.94v-3.4h-3.48v3.4h-.94v-7.14h.94v2.95h3.48v-2.95h.94Z" transform="translate(-85.55 -72.1)"/><path class="cls-2" d="M130.59,224.75h-.94v-7.14h.94Z" transform="translate(-85.55 -72.1)"/><path class="cls-2" d="M138,224.75h-.92l-3.88-6.23,0,.47c0,.18,0,.33,0,.45v5.31h-.76v-7.14h1.18l3.63,5.82,0-.5c0-.2,0-.37,0-.52v-4.8H138Z" transform="translate(-85.55 -72.1)"/><path class="cls-2" d="M145.42,221.15v3.7h-.58l-.26-.9a2.39,2.39,0,0,1-2.06,1,2.76,2.76,0,0,1-2.31-1.07,4.08,4.08,0,0,1-.82-2.58,4.21,4.21,0,0,1,.87-2.71,2.88,2.88,0,0,1,2.37-1.08,2.62,2.62,0,0,1,2.71,2.07l-.89.21a1.88,1.88,0,0,0-.72-1.16,2,2,0,0,0-1.16-.36,1.77,1.77,0,0,0-1.63.85,3.93,3.93,0,0,0-.53,2.14,3.54,3.54,0,0,0,.59,2.17,1.89,1.89,0,0,0,1.61.79,1.87,1.87,0,0,0,1.32-.5,1.84,1.84,0,0,0,.53-1.38c0-.11,0-.24,0-.39h-1.86v-.75Z" transform="translate(-85.55 -72.1)"/><path class="cls-2" d="M150.89,224.75H150v-7.14h.94Z" transform="translate(-85.55 -72.1)"/><path class="cls-2" d="M158.29,224.75h-.91l-3.88-6.23V219c0,.18,0,.33,0,.45v5.31h-.76v-7.14h1.17l3.63,5.82v-.5c0-.2,0-.37,0-.52v-4.8h.74Z" transform="translate(-85.55 -72.1)"/><path class="cls-2" d="M160.16,224.75v-7.14h3a2.3,2.3,0,0,1,1.66.52,1.64,1.64,0,0,1,.54,1.21A1.59,1.59,0,0,1,164,221a2.06,2.06,0,0,1,1.18.69,1.77,1.77,0,0,1,.38,1.13,1.86,1.86,0,0,1-.59,1.41,2.58,2.58,0,0,1-1.84.57Zm.91-4.08h1.63a1.89,1.89,0,0,0,1.36-.37,1.24,1.24,0,0,0,.34-.87,1,1,0,0,0-.37-.79,1.61,1.61,0,0,0-1.09-.31h-1.87Zm0,3.29h2a1.71,1.71,0,0,0,1.14-.34,1.11,1.11,0,0,0,.4-.88,1.44,1.44,0,0,0-.18-.71,1.17,1.17,0,0,0-.51-.5,2.13,2.13,0,0,0-1-.18h-1.87Z" transform="translate(-85.55 -72.1)"/><path class="cls-2" d="M171.82,224v.79H167v-7.14h4.75v.78H167.9v2.27h3v.73h-3V224Z" transform="translate(-85.55 -72.1)"/><path class="cls-2" d="M175.39,224.75h-.94v-6.36h-2.14v-.78h5.24v.78h-2.16Z" transform="translate(-85.55 -72.1)"/><path class="cls-2" d="M186.94,217.61l-1.81,7.14h-.94l-1.63-5.54L181,224.75h-1l-1.9-7.14h1l1.5,5.78,1.6-5.78H183l1.72,5.78,1.39-5.78Z" transform="translate(-85.55 -72.1)"/><path class="cls-2" d="M192.94,224v.79h-4.85v-7.14h4.75v.78H189v2.27h3v.73h-3V224Z" transform="translate(-85.55 -72.1)"/><path class="cls-2" d="M199.11,224v.79h-4.85v-7.14H199v.78h-3.8v2.27h3v.73h-3V224Z" transform="translate(-85.55 -72.1)"/><path class="cls-2" d="M205.94,224.75H205l-3.88-6.23V219c0,.18,0,.33,0,.45v5.31h-.76v-7.14h1.18l3.62,5.82v-.5c0-.2,0-.37,0-.52v-4.8h.74Z" transform="translate(-85.55 -72.1)"/><path class="cls-2" d="M91.27,204.73H87.46v1.82h3v1.67h-3v1.94h3.81v1.76H85.55V203h5.72Z" transform="translate(-85.55 -72.1)"/><path class="cls-2" d="M94.26,203v8.88H92.39V203Z" transform="translate(-85.55 -72.1)"/><path class="cls-2" d="M102.1,207.17v4.75h-.86a6.41,6.41,0,0,0-.27-1,2.6,2.6,0,0,1-2.18,1.16,2.8,2.8,0,0,1-2.43-1.25,5.48,5.48,0,0,1-.87-3.21,5.78,5.78,0,0,1,.92-3.41,3,3,0,0,1,2.53-1.29,2.85,2.85,0,0,1,2.15.84,3.76,3.76,0,0,1,1,2.21l-1.79.26c-.14-1.07-.6-1.61-1.37-1.61a1.24,1.24,0,0,0-1.15.76,4.93,4.93,0,0,0-.39,2.19,4.24,4.24,0,0,0,.42,2.09,1.32,1.32,0,0,0,1.2.72,1.29,1.29,0,0,0,.9-.37,1.52,1.52,0,0,0,.39-1.16h-1.5v-1.66Z" transform="translate(-85.55 -72.1)"/><path class="cls-2" d="M109.75,203v8.88h-1.84v-3.66h-2.5v3.66h-1.84V203h1.84v3.46h2.5V203Z" transform="translate(-85.55 -72.1)"/><path class="cls-2" d="M116.42,203v1.76h-2v7.12h-1.9V204.8h-2V203Z" transform="translate(-85.55 -72.1)"/><path class="cls-2" d="M123.55,203,121,208.18v3.74h-1.87v-3.74L116.65,203h2.17l1.53,3.36,1.52-3.36Z" transform="translate(-85.55 -72.1)"/><path class="cls-2" d="M132.75,204.73h-3.81v1.82h3v1.67h-3v1.94h3.81v1.76H127V203h5.72Z" transform="translate(-85.55 -72.1)"/><path class="cls-2" d="M135.74,203v8.88h-1.87V203Z" transform="translate(-85.55 -72.1)"/><path class="cls-2" d="M143.57,207.17v4.75h-.85a6.41,6.41,0,0,0-.27-1,2.62,2.62,0,0,1-2.18,1.16,2.83,2.83,0,0,1-2.44-1.25,5.48,5.48,0,0,1-.87-3.21,5.71,5.71,0,0,1,.93-3.41,3,3,0,0,1,2.53-1.29,2.87,2.87,0,0,1,2.15.84,3.7,3.7,0,0,1,1,2.21l-1.78.26c-.14-1.07-.6-1.61-1.37-1.61a1.26,1.26,0,0,0-1.16.76,4.93,4.93,0,0,0-.39,2.19,4.12,4.12,0,0,0,.43,2.09,1.32,1.32,0,0,0,1.2.72,1.29,1.29,0,0,0,.9-.37,1.52,1.52,0,0,0,.39-1.16h-1.5v-1.66Z" transform="translate(-85.55 -72.1)"/><path class="cls-2" d="M151.22,203v8.88h-1.84v-3.66h-2.49v3.66h-1.84V203h1.84v3.46h2.49V203Z" transform="translate(-85.55 -72.1)"/><path class="cls-2" d="M157.9,203v1.76h-2v7.12H154V204.8h-2V203Z" transform="translate(-85.55 -72.1)"/><path class="cls-2" d="M165,203l-2.51,5.14v3.74h-1.87v-3.74L158.13,203h2.17l1.53,3.36,1.51-3.36Z" transform="translate(-85.55 -72.1)"/><path class="cls-2" d="M174.22,204.73h-3.81v1.82h3v1.67h-3v1.94h3.81v1.76h-5.71V203h5.71Z" transform="translate(-85.55 -72.1)"/><path class="cls-2" d="M177.22,203v8.88h-1.87V203Z" transform="translate(-85.55 -72.1)"/><path class="cls-2" d="M185.05,207.17v4.75h-.85a9.6,9.6,0,0,0-.27-1,2.62,2.62,0,0,1-2.18,1.16,2.81,2.81,0,0,1-2.44-1.25,5.48,5.48,0,0,1-.87-3.21,5.71,5.71,0,0,1,.93-3.41,3,3,0,0,1,2.52-1.29,2.89,2.89,0,0,1,2.16.84,3.7,3.7,0,0,1,1,2.21l-1.78.26c-.14-1.07-.6-1.61-1.38-1.61a1.24,1.24,0,0,0-1.15.76,4.93,4.93,0,0,0-.39,2.19,4.24,4.24,0,0,0,.42,2.09,1.33,1.33,0,0,0,1.2.72,1.26,1.26,0,0,0,.9-.37,1.48,1.48,0,0,0,.4-1.16h-1.51v-1.66Z" transform="translate(-85.55 -72.1)"/><path class="cls-2" d="M192.7,203v8.88h-1.84v-3.66h-2.49v3.66h-1.84V203h1.84v3.46h2.49V203Z" transform="translate(-85.55 -72.1)"/><path class="cls-2" d="M199.38,203v1.76h-2v7.12h-1.9V204.8h-2V203Z" transform="translate(-85.55 -72.1)"/><path class="cls-2" d="M206.5,203,204,208.18v3.74h-1.87v-3.74L199.6,203h2.18l1.52,3.36,1.52-3.36Z" transform="translate(-85.55 -72.1)"/></svg>